<svg xmlns="http://www.w3.org/2000/svg" viewBox="0 0 512 512">
  <rect width="512" height="512" rx="100" fill="#22252a"/>
  <rect x="6" y="6" width="500" height="500" rx="94" fill="none" stroke="#3a3f47" stroke-width="4"/>
  <g>
    <path d="M136 88h240v206l-20 14-20-14-20 14-20-14-20 14-20-14-20 14-20-14-20 14-20-14-20 14-20-14z" fill="#f7f5ef"/>
    <rect x="168" y="122" width="130" height="16" rx="8" fill="#6c6757"/>
    <rect x="168" y="160" width="176" height="16" rx="8" fill="#a39d8c"/>
    <rect x="168" y="198" width="150" height="16" rx="8" fill="#a39d8c"/>
    <rect x="168" y="240" width="90" height="18" rx="9" fill="#272419"/>
    <rect x="290" y="240" width="54" height="18" rx="9" fill="#1f8a4c"/>
  </g>
  <g>
    <rect x="128" y="344" width="256" height="88" rx="22" fill="#135c33"/>
    <rect x="128" y="338" width="256" height="82" rx="22" fill="#1f8a4c"/>
    <rect x="140" y="344" width="232" height="30" rx="15" fill="#29a35d"/>
    <path d="M232 402 h48 M232 384 h48 M300 366 a30 34 0 1 0 0 50" fill="none" stroke="#ffffff" stroke-width="13" stroke-linecap="round"/>
  </g>
</svg>
